<svg width="24" height="26" viewBox="0 0 24 26" fill="none" xmlns="http://www.w3.org/2000/svg">
<g clip-path="url(#clip0)">
<path d="M12.3173 8.45323H14.6566C14.9371 8.45323 15.1644 8.22588 15.1644 7.94542V5.60217C15.1644 5.32171 14.9371 5.09436 14.6566 5.09436H12.3173C12.0368 5.09436 11.8094 5.32171 11.8094 5.60217V7.94542C11.8094 8.22588 12.0368 8.45323 12.3173 8.45323ZM12.8251 6.11003H14.1488V7.43766H12.8251V6.11003Z" fill="#03C239"/>
<path d="M7.70984 8.45323H10.0492C10.3296 8.45323 10.557 8.22588 10.557 7.94542V5.60217C10.557 5.32171 10.3296 5.09436 10.0492 5.09436H7.70984C7.42937 5.09436 7.20203 5.32171 7.20203 5.60217V7.94542C7.20203 8.22588 7.42937 8.45323 7.70984 8.45323ZM8.21765 6.11003H9.54137V7.43766H8.21765V6.11003Z" fill="#03C239"/>
<path d="M12.3173 13.6116H14.6566C14.9371 13.6116 15.1644 13.3842 15.1644 13.1038V10.7606C15.1644 10.4801 14.9371 10.2527 14.6566 10.2527H12.3173C12.0368 10.2527 11.8094 10.4801 11.8094 10.7606V13.1038C11.8094 13.3842 12.0368 13.6116 12.3173 13.6116ZM12.8251 11.2683H14.1488V12.5959H12.8251V11.2683Z" fill="#03C239"/>
<path d="M7.70984 13.6116H10.0492C10.3296 13.6116 10.557 13.3842 10.557 13.1038V10.7606C10.557 10.4801 10.3296 10.2527 10.0492 10.2527H7.70984C7.42937 10.2527 7.20203 10.4801 7.20203 10.7606V13.1038C7.20203 13.3842 7.42937 13.6116 7.70984 13.6116ZM8.21765 11.2683H9.54137V12.5959H8.21765V11.2683Z" fill="#03C239"/>
<path d="M12.3173 18.7698H14.6566C14.9371 18.7698 15.1644 18.5425 15.1644 18.262V15.9188C15.1644 15.6383 14.9371 15.4109 14.6566 15.4109H12.3173C12.0368 15.4109 11.8094 15.6383 11.8094 15.9188V18.262C11.8094 18.5425 12.0368 18.7698 12.3173 18.7698ZM12.8251 16.4266H14.1488V17.7543H12.8251V16.4266Z" fill="#03C239"/>
<path d="M10.0492 18.7698C10.3296 18.7698 10.557 18.5425 10.557 18.262V15.9188C10.557 15.6383 10.3296 15.4109 10.0492 15.4109H7.70984C7.42937 15.4109 7.20203 15.6383 7.20203 15.9188V18.262C7.20203 18.5425 7.42937 18.7698 7.70984 18.7698H10.0492ZM8.21765 16.4266H9.54137V17.7543H8.21765V16.4266Z" fill="#03C239"/>
<path d="M21.5599 24.9844H21.0877V9.6458C21.0877 9.36533 20.8604 9.13798 20.5799 9.13798H17.2714V2.84157C17.2714 2.5611 17.044 2.33375 16.7636 2.33375H15.6816V0.507812C15.6816 0.227348 15.4543 0 15.1738 0H7.19263C6.91216 0 6.68482 0.227348 6.68482 0.507812V2.33375H5.60292C5.32246 2.33375 5.09511 2.5611 5.09511 2.84157V12.615H2.30884C2.02838 12.615 1.80103 12.8423 1.80103 13.1228V24.9844H0.439941C0.159477 24.9844 -0.0678711 25.2117 -0.0678711 25.4922C-0.0678711 25.7727 0.159477 26 0.439941 26H21.5599C21.8403 26 22.0677 25.7727 22.0677 25.4922C22.0677 25.2117 21.8403 24.9844 21.5599 24.9844ZM7.70044 1.01562H14.666V2.33375H7.70044V1.01562ZM2.81666 13.6306H5.09511V24.9844H2.81666V13.6306ZM6.11073 3.34938H16.2558V24.9844H13.7279V21.6339C13.7279 21.3535 13.5005 21.1261 13.2201 21.1261H9.14639C8.86592 21.1261 8.63857 21.3535 8.63857 21.6339V24.9844H6.11073V3.34938ZM9.65425 24.9844V22.1417H12.7123V24.9844H9.65425ZM17.2714 24.9844V10.1536H20.0721V24.9844H17.2714Z" fill="#03C239"/>
</g>
<defs>
<clipPath id="clip0">
<rect width="26" height="26" fill="white" transform="translate(-2)"/>
</clipPath>
</defs>
</svg>
