<svg width="26" height="26" viewBox="0 0 26 26" fill="none" xmlns="http://www.w3.org/2000/svg">
<path d="M25.1875 23.5625H24.7812V10.1562C24.7812 10.0485 24.7384 9.94517 24.6623 9.86899C24.5861 9.7928 24.4827 9.75 24.375 9.75H19.9062V0.8125C19.9062 0.704756 19.8634 0.601425 19.7873 0.525238C19.7111 0.449051 19.6077 0.40625 19.5 0.40625H6.5C6.39226 0.40625 6.28892 0.449051 6.21274 0.525238C6.13655 0.601425 6.09375 0.704756 6.09375 0.8125V5.6875H1.625C1.51726 5.6875 1.41392 5.7303 1.33774 5.80649C1.26155 5.88267 1.21875 5.98601 1.21875 6.09375V23.5625H0.8125C0.704756 23.5625 0.601425 23.6053 0.525238 23.6815C0.449051 23.7577 0.40625 23.861 0.40625 23.9688V25.1875C0.40625 25.2952 0.449051 25.3986 0.525238 25.4748C0.601425 25.5509 0.704756 25.5938 0.8125 25.5938H25.1875C25.2952 25.5938 25.3986 25.5509 25.4748 25.4748C25.5509 25.3986 25.5938 25.2952 25.5938 25.1875V23.9688C25.5938 23.861 25.5509 23.7577 25.4748 23.6815C25.3986 23.6053 25.2952 23.5625 25.1875 23.5625ZM19.9062 10.5625H23.9688V23.5625H19.9062V10.5625ZM6.90625 1.21875H19.0938V23.5625H16.25V17.4688C16.25 17.361 16.2072 17.2577 16.131 17.1815C16.0548 17.1053 15.9515 17.0625 15.8438 17.0625H10.1562C10.0485 17.0625 9.94517 17.1053 9.86899 17.1815C9.7928 17.2577 9.75 17.361 9.75 17.4688V23.5625H6.90625V1.21875ZM15.4375 17.875V23.5625H13.4062V17.875H15.4375ZM12.5938 17.875V23.5625H10.5625V17.875H12.5938ZM2.03125 6.5H6.09375V23.5625H2.03125V6.5ZM24.7812 24.7812H1.21875V24.375H24.7812V24.7812Z" fill="#03C239"/>
<path d="M5.28125 6.90625H2.84375C2.73601 6.90625 2.63267 6.94905 2.55649 7.02524C2.4803 7.10142 2.4375 7.20476 2.4375 7.3125V9.75C2.4375 9.85774 2.4803 9.96108 2.55649 10.0373C2.63267 10.1134 2.73601 10.1562 2.84375 10.1562H5.28125C5.38899 10.1562 5.49233 10.1134 5.56851 10.0373C5.6447 9.96108 5.6875 9.85774 5.6875 9.75V7.3125C5.6875 7.20476 5.6447 7.10142 5.56851 7.02524C5.49233 6.94905 5.38899 6.90625 5.28125 6.90625ZM4.875 9.34375H3.25V7.71875H4.875V9.34375Z" fill="#03C239"/>
<path d="M5.28125 10.9688H2.84375C2.73601 10.9688 2.63267 11.0116 2.55649 11.0877C2.4803 11.1639 2.4375 11.2673 2.4375 11.375V13.8125C2.4375 13.9202 2.4803 14.0236 2.55649 14.0998C2.63267 14.1759 2.73601 14.2188 2.84375 14.2188H5.28125C5.38899 14.2188 5.49233 14.1759 5.56851 14.0998C5.6447 14.0236 5.6875 13.9202 5.6875 13.8125V11.375C5.6875 11.2673 5.6447 11.1639 5.56851 11.0877C5.49233 11.0116 5.38899 10.9688 5.28125 10.9688ZM4.875 13.4062H3.25V11.7812H4.875V13.4062Z" fill="#03C239"/>
<path d="M5.28125 15.0312H2.84375C2.73601 15.0312 2.63267 15.0741 2.55649 15.1502C2.4803 15.2264 2.4375 15.3298 2.4375 15.4375V17.875C2.4375 17.9827 2.4803 18.0861 2.55649 18.1623C2.63267 18.2384 2.73601 18.2812 2.84375 18.2812H5.28125C5.38899 18.2812 5.49233 18.2384 5.56851 18.1623C5.6447 18.0861 5.6875 17.9827 5.6875 17.875V15.4375C5.6875 15.3298 5.6447 15.2264 5.56851 15.1502C5.49233 15.0741 5.38899 15.0312 5.28125 15.0312ZM4.875 17.4688H3.25V15.8438H4.875V17.4688Z" fill="#03C239"/>
<path d="M20.7188 14.2188H23.1562C23.264 14.2188 23.3673 14.1759 23.4435 14.0998C23.5197 14.0236 23.5625 13.9202 23.5625 13.8125V11.375C23.5625 11.2673 23.5197 11.1639 23.4435 11.0877C23.3673 11.0116 23.264 10.9688 23.1562 10.9688H20.7188C20.611 10.9688 20.5077 11.0116 20.4315 11.0877C20.3553 11.1639 20.3125 11.2673 20.3125 11.375V13.8125C20.3125 13.9202 20.3553 14.0236 20.4315 14.0998C20.5077 14.1759 20.611 14.2188 20.7188 14.2188ZM21.125 11.7812H22.75V13.4062H21.125V11.7812Z" fill="#03C239"/>
<path d="M20.7188 18.2812H23.1562C23.264 18.2812 23.3673 18.2384 23.4435 18.1623C23.5197 18.0861 23.5625 17.9827 23.5625 17.875V15.4375C23.5625 15.3298 23.5197 15.2264 23.4435 15.1502C23.3673 15.0741 23.264 15.0312 23.1562 15.0312H20.7188C20.611 15.0312 20.5077 15.0741 20.4315 15.1502C20.3553 15.2264 20.3125 15.3298 20.3125 15.4375V17.875C20.3125 17.9827 20.3553 18.0861 20.4315 18.1623C20.5077 18.2384 20.611 18.2812 20.7188 18.2812ZM21.125 15.8438H22.75V17.4688H21.125V15.8438Z" fill="#03C239"/>
<path d="M8.125 15.8438H17.875C17.9827 15.8438 18.0861 15.8009 18.1623 15.7248C18.2384 15.6486 18.2812 15.5452 18.2812 15.4375V12.1875C18.2812 12.0798 18.2384 11.9764 18.1623 11.9002C18.0861 11.8241 17.9827 11.7812 17.875 11.7812H8.125C8.01726 11.7812 7.91392 11.8241 7.83774 11.9002C7.76155 11.9764 7.71875 12.0798 7.71875 12.1875V15.4375C7.71875 15.5452 7.76155 15.6486 7.83774 15.7248C7.91392 15.8009 8.01726 15.8438 8.125 15.8438ZM12.5938 15.0312H10.9688V12.5938H12.5938V15.0312ZM13.4062 12.5938H15.0312V15.0312H13.4062V12.5938ZM17.4688 15.0312H15.8438V12.5938H17.4688V15.0312ZM8.53125 12.5938H10.1562V15.0312H8.53125V12.5938Z" fill="#03C239"/>
<path d="M8.125 10.9688H17.875C17.9827 10.9688 18.0861 10.9259 18.1623 10.8498C18.2384 10.7736 18.2812 10.6702 18.2812 10.5625V7.3125C18.2812 7.20476 18.2384 7.10142 18.1623 7.02524C18.0861 6.94905 17.9827 6.90625 17.875 6.90625H8.125C8.01726 6.90625 7.91392 6.94905 7.83774 7.02524C7.76155 7.10142 7.71875 7.20476 7.71875 7.3125V10.5625C7.71875 10.6702 7.76155 10.7736 7.83774 10.8498C7.91392 10.9259 8.01726 10.9688 8.125 10.9688ZM12.5938 10.1562H10.9688V7.71875H12.5938V10.1562ZM13.4062 7.71875H15.0312V10.1562H13.4062V7.71875ZM17.4688 10.1562H15.8438V7.71875H17.4688V10.1562ZM8.53125 7.71875H10.1562V10.1562H8.53125V7.71875Z" fill="#03C239"/>
<path d="M8.125 6.09375H17.875C17.9827 6.09375 18.0861 6.05095 18.1623 5.97476C18.2384 5.89858 18.2812 5.79524 18.2812 5.6875V2.4375C18.2812 2.32976 18.2384 2.22642 18.1623 2.15024C18.0861 2.07405 17.9827 2.03125 17.875 2.03125H8.125C8.01726 2.03125 7.91392 2.07405 7.83774 2.15024C7.76155 2.22642 7.71875 2.32976 7.71875 2.4375V5.6875C7.71875 5.79524 7.76155 5.89858 7.83774 5.97476C7.91392 6.05095 8.01726 6.09375 8.125 6.09375ZM12.5938 5.28125H10.9688V2.84375H12.5938V5.28125ZM13.4062 2.84375H15.0312V5.28125H13.4062V2.84375ZM17.4688 5.28125H15.8438V2.84375H17.4688V5.28125ZM8.53125 2.84375H10.1562V5.28125H8.53125V2.84375Z" fill="#03C239"/>
</svg>
