<svg width="26" height="26" viewBox="0 0 26 26" fill="none" xmlns="http://www.w3.org/2000/svg">
<path d="M18.9457 5.78282L18.9708 5.97585L18.6815 6.03574L18.643 6.44693H18.9895L19.4504 6.40255L19.6884 6.11969L19.4354 6.0213L19.297 5.86196L19.089 5.5251L18.9895 5.04868L18.5986 5.12835L18.489 5.29624V5.48553L18.6772 5.61439L18.9457 5.78282Z" fill="#03C239"/>
<path d="M18.6125 5.94109L18.6334 5.68336L18.404 5.58444L18.0832 5.65877L17.8452 6.04054V6.28811H18.1227L18.6125 5.94109Z" fill="#03C239"/>
<path d="M12.0089 7.03563L11.9384 7.21743H11.5967V7.39388H11.678C11.678 7.39388 11.6828 7.43131 11.6897 7.48051L11.8993 7.46286L12.0303 7.38159L12.0645 7.21743L12.234 7.203L12.3009 7.06504L12.1453 7.03296L12.0089 7.03563Z" fill="#03C239"/>
<path d="M11.1282 7.35593L11.1149 7.52864L11.3624 7.50778L11.3881 7.33454L11.2395 7.21744L11.1282 7.35593Z" fill="#03C239"/>
<path d="M25.9968 12.8655C25.993 12.4853 25.9738 12.1078 25.938 11.7362C25.8177 10.4973 25.5214 9.30974 25.0776 8.19648C25.0445 8.1136 25.014 8.02966 24.9787 7.94785C24.3873 6.55066 23.5569 5.2786 22.5405 4.18085C22.4736 4.1092 22.4057 4.03862 22.3378 3.96911C22.1459 3.76967 21.9485 3.57503 21.7443 3.38842C19.4333 1.28436 16.3641 0 12.9997 0C9.60703 0 6.51591 1.30735 4.1985 3.4435C3.65845 3.94131 3.16224 4.48457 2.71202 5.06632C1.0138 7.26289 0 10.0145 0 12.9997C0 20.1685 5.83202 26 13.0003 26C18.0425 26 22.4202 23.1126 24.575 18.9055C25.0359 18.0062 25.3947 17.0474 25.6364 16.0427C25.6979 15.7877 25.7508 15.5316 25.7968 15.2722C25.9278 14.5338 25.9995 13.7745 25.9995 12.9997C26 12.9548 25.9973 12.9104 25.9968 12.8655ZM23.55 7.6698L23.6254 7.58532C23.7243 7.77728 23.8168 7.97244 23.905 8.17028L23.782 8.16547L23.55 8.19755V7.6698V7.6698ZM21.6716 5.40158L21.6737 4.82089C21.878 5.03745 22.0747 5.26042 22.263 5.49141L22.0288 5.84004L21.2101 5.83256L21.1588 5.66198L21.6716 5.40158ZM5.98976 3.95842V3.93649H6.25016L6.27262 3.8472H6.69878V4.03328L6.57633 4.19689H5.98922L5.98976 3.95842ZM6.40576 4.53857C6.40576 4.53857 6.66616 4.49419 6.68862 4.49419C6.71107 4.49419 6.68862 4.75406 6.68862 4.75406L6.10151 4.79095L5.98976 4.65728L6.40576 4.53857ZM24.3782 9.699H23.427L22.8474 9.2675L22.2373 9.32685V9.699H22.0443L21.8357 9.55036L20.7791 9.28247V8.59805L19.4402 8.70231L19.0253 8.92529H18.4938L18.2334 8.89908L17.588 9.25734V9.9316L16.2689 10.8834L16.3785 11.2897H16.6459L16.5758 11.6769L16.3876 11.7459L16.3775 12.7575L17.5175 14.0558H18.0137L18.0436 13.9766H18.9355L19.1927 13.7387H19.6985L19.976 14.0167L20.73 14.0948L20.63 15.0974L21.4668 16.5748L21.0262 17.4169L21.0561 17.8137L21.4031 18.1596V19.1135L21.8587 19.7263V20.5187H22.2523C20.0621 23.2078 16.7288 24.9301 12.9992 24.9301C6.42127 24.9306 1.06941 19.5782 1.06941 12.9997C1.06941 11.3438 1.40948 9.76531 2.02172 8.33069V7.95854L2.44841 7.44041C2.59652 7.16076 2.75533 6.88806 2.92483 6.62231L2.94408 6.83887L2.44895 7.44041C2.29549 7.73022 2.15219 8.02645 2.02225 8.33069V9.00977L2.51792 9.24825V10.192L2.99328 11.0031L3.37987 11.0625L3.42959 10.7845L2.97349 10.0808L2.8842 9.39689H3.15155L3.26437 10.1006L3.92366 11.0625L3.75362 11.3732L4.17283 12.0143L5.2139 12.272V12.1036L5.63044 12.1629L5.59087 12.4602L5.91811 12.5201L6.4234 12.6581L7.13723 13.4713L8.04891 13.5403L8.1382 14.2841L7.5142 14.7204L7.48479 15.3845L7.3955 15.7909L8.29808 16.9207L8.36705 17.3078C8.36705 17.3078 8.69429 17.3966 8.7344 17.3966C8.77396 17.3966 9.46801 17.9222 9.46801 17.9222V19.9643L9.71558 20.0338L9.54715 20.9759L9.96368 21.5315L9.88668 22.4651L10.4369 23.4324L11.1432 24.0494L11.8533 24.0622L11.9228 23.8339L11.401 23.3944L11.4309 23.1762L11.5245 22.9089L11.5443 22.6362L11.1914 22.6255L11.0133 22.402L11.3063 22.1202L11.3459 21.9074L11.0187 21.8138L11.0379 21.616L11.5042 21.5454L12.2132 21.2048L12.4511 20.7685L13.1949 19.8167L13.0259 19.0724L13.2543 18.6762L13.9381 18.697L14.3985 18.3323L14.5472 16.8961L15.0578 16.2475L15.1471 15.831L14.6814 15.6818L14.3739 15.1776L13.3232 15.1669L12.4902 14.8493L12.4506 14.2552L12.1725 13.7692L11.4191 13.7579L10.9839 13.0746L10.5973 12.8858L10.5775 13.0944L9.87385 13.1361L9.61612 12.7773L8.88197 12.6281L8.27722 13.327L7.32545 13.1655L7.25647 12.0929L6.56189 11.9742L6.84047 11.448L6.7608 11.1459L5.84806 11.756L5.27379 11.686L5.069 11.2373L5.19412 10.7748L5.51066 10.1915L6.23947 9.82252L7.64681 9.82198L7.64306 10.2514L8.14889 10.4866L8.10879 9.75301L8.47346 9.3862L9.20921 8.90283L9.25948 8.56276L9.99309 7.7992L10.7732 7.36716L10.7042 7.31048L11.2325 6.8132L11.4261 6.86454L11.5149 6.97575L11.7154 6.75332L11.7646 6.73139L11.5448 6.70038L11.3218 6.62606V6.41217L11.44 6.31539H11.7004L11.8196 6.36779L11.9228 6.57633L12.049 6.55708V6.5389L12.0854 6.5512L12.4511 6.49505L12.503 6.31646L12.7115 6.36886V6.56243L12.518 6.69557H12.5185L12.5468 6.90785L13.2093 7.1121C13.2093 7.1121 13.2099 7.11478 13.2109 7.12012L13.3633 7.10729L13.3735 6.82015L12.8484 6.58114L12.8185 6.44319L13.2543 6.29454L13.2735 5.87747L12.8179 5.59996L12.788 4.89682L12.1635 5.20374H11.9357L11.9956 4.6685L11.1454 4.46799L10.7935 4.73374V5.54435L10.161 5.74486L9.90754 6.27315L9.6327 6.31753V5.64167L9.03811 5.55932L8.74081 5.36576L8.62104 4.92784L9.68457 4.30544L10.2048 4.14717L10.2572 4.49686L10.547 4.48189L10.5695 4.30597L10.8727 4.26266L10.878 4.20117L10.7476 4.14717L10.7176 3.96109L11.0903 3.92954L11.3154 3.69534L11.3277 3.67823L11.3304 3.6793L11.3988 3.60872L12.1822 3.5098L12.5287 3.80389L11.6202 4.28779L12.7762 4.56049L12.9259 4.1739H13.4312L13.6098 3.83704L13.2526 3.74774V3.32158L12.1324 2.82538L11.3593 2.91467L10.9229 3.14299L10.9529 3.69802L10.4968 3.6285L10.4267 3.32158L10.8636 2.92483L10.0706 2.88526L9.84284 2.95424L9.74392 3.22159L10.0412 3.27186L9.98186 3.56915L9.47657 3.5991L9.39743 3.79694L8.66435 3.81725C8.66435 3.81725 8.64403 3.40125 8.61462 3.40125C8.58521 3.40125 9.18943 3.3911 9.18943 3.3911L9.62628 2.9644L9.3878 2.84516L9.07073 3.15315L8.54458 3.12321L8.2275 2.68689H7.55323L6.84956 3.2125H7.49442L7.55323 3.40125L7.38587 3.55685L8.0997 3.57664L8.20878 3.83437L7.40512 3.80442L7.36609 3.60605L6.86079 3.49697L6.59291 3.34832L5.99136 3.35313C7.96068 1.91852 10.3824 1.06941 12.9997 1.06941C16.0165 1.06941 18.7729 2.1971 20.8759 4.04985L20.7342 4.3033L20.184 4.51879L19.952 4.77063L20.0054 5.06419L20.2894 5.10375L20.4605 5.53152L20.9503 5.33421L21.031 5.90634H20.8834L20.4813 5.84699L20.0354 5.92185L19.6039 6.53141L18.9868 6.6282L18.8975 7.15648L19.1579 7.21797L19.0825 7.55751L18.4698 7.43453L17.9078 7.55751L17.7885 7.87031L17.8859 8.52693L18.2158 8.68146L18.7692 8.67825L19.143 8.64457L19.2568 8.34727L19.8407 7.58852L20.2252 7.66713L20.6038 7.32492L20.6743 7.59227L21.6058 8.22055L21.4919 8.37347L21.0722 8.35101L21.2336 8.57987L21.4919 8.63655L21.7945 8.51036L21.7881 8.14569L21.9223 8.07831L21.8143 7.96389L21.193 7.6174L21.0294 7.15702H21.5459L21.7111 7.32064L22.156 7.70402L22.1747 8.16761L22.6356 8.65847L22.8073 7.98581L23.1265 7.8115L23.1864 8.36171L23.4981 8.70392L24.12 8.69322C24.2403 9.00282 24.3483 9.31776 24.4429 9.63912L24.3782 9.699ZM7.09071 5.90634L7.40298 5.7577L7.68531 5.82507L7.58799 6.20417L7.28321 6.30096L7.09071 5.90634ZM8.74776 6.79877V7.0442H8.03447L7.76712 6.96987L7.83395 6.79877L8.1767 6.65707H8.6451V6.79877H8.74776ZM9.07607 7.14098V7.37892L8.89748 7.49388L8.67504 7.53505C8.67504 7.53505 8.67504 7.17841 8.67504 7.14098H9.07607ZM8.87502 7.0442V6.76134L9.12045 6.98484L8.87502 7.0442ZM8.98678 7.61633V7.84786L8.81621 8.01896H8.4371L8.49645 7.7591L8.67558 7.74359L8.71247 7.65429L8.98678 7.61633ZM8.04249 7.14098H8.43657L7.93127 7.84732L7.72274 7.73557L7.76765 7.43827L8.04249 7.14098ZM9.65623 7.53505V7.76605H9.27712L9.17339 7.61633V7.40138H9.20333L9.65623 7.53505ZM9.30599 7.21744L9.41401 7.10408L9.59634 7.21744L9.45037 7.33775L9.30599 7.21744ZM24.5718 10.3011L24.6092 10.2572C24.6247 10.3246 24.6413 10.392 24.6563 10.4604L24.5718 10.3011Z" fill="#03C239"/>
<path d="M2.02228 7.95853V8.33068C2.15221 8.02697 2.29551 7.73074 2.44897 7.4404L2.02228 7.95853Z" fill="#03C239"/>
</svg>
