<svg width="26" height="26" viewBox="0 0 26 26" fill="none" xmlns="http://www.w3.org/2000/svg">
<path d="M13.0046 0.0027162C7.80298 0.00195787 3.10186 3.10316 1.05451 7.88592L0.89248 7.93965L0.9553 8.12815C-1.74034 14.778 1.46398 22.3544 8.11242 25.0506C9.66522 25.6804 11.3251 26.0036 13.0008 26.0027C20.1789 26.0038 25.9989 20.1843 26 13.0047C26.0011 5.82498 20.1828 0.00374537 13.0046 0.0027162ZM23.1995 19.5571L22.5321 18.89V17.336C22.5329 17.269 22.518 17.2027 22.4888 17.1423L20.7991 13.7671V12.136C20.7991 11.9912 20.7268 11.8559 20.6063 11.7755L19.3066 10.9088C19.2047 10.8408 19.0788 10.8191 18.96 10.849L17.3683 11.2468L14.6947 10.0994L14.3269 7.52192L15.3463 6.50272H17.5346L18.2712 7.60988C18.3377 7.70944 18.4425 7.77709 18.5606 7.79665L21.16 8.22998C21.2297 8.24168 21.301 8.23599 21.368 8.21352L23.7621 7.41532C25.7701 11.2695 25.5553 15.9052 23.1995 19.5571ZM21.4126 4.27278L20.7082 4.74252L18.7443 4.34948L17.4701 3.92525C17.3921 3.89876 17.3082 3.8954 17.2283 3.91572L15.6175 4.31828L14.9114 4.08298L15.4347 3.03605H16.8999C16.9672 3.0361 17.0334 3.02056 17.0936 2.99055L18.5926 2.24088C19.6249 2.77984 20.5746 3.46407 21.4126 4.27278ZM8.25545 1.83702L9.29523 2.53035C9.34635 2.56437 9.40408 2.58712 9.46463 2.59708L11.5641 2.94722L11.3592 3.56038L10.2653 3.92568C10.1673 3.95829 10.0842 4.02481 10.0309 4.11332L8.7866 6.18725L6.78805 7.38672L3.842 7.80748C3.62846 7.83765 3.46968 8.02036 3.46941 8.23605V9.53605C3.46941 9.65099 3.51512 9.76116 3.59635 9.84241L4.3359 10.5821V11.3266L2.5336 10.1245L1.87984 8.16282C3.12368 5.32015 5.40346 3.05815 8.25545 1.83702ZM7.022 16.0447L5.06374 15.6525L4.3359 14.2004V13.1821L5.95016 11.5675L6.5476 12.7631C6.62098 12.91 6.77115 13.0028 6.93535 13.0027H9.72284L10.8965 14.9592C10.9748 15.0896 11.1157 15.1693 11.2678 15.1694H12.4722L12.1689 16.6891L10.5287 18.3297C10.4473 18.4109 10.4015 18.5211 10.4013 18.636V19.7194L8.84162 20.8894C8.73256 20.9712 8.66833 21.0997 8.66833 21.236V22.8012L8.12937 22.6227L7.3686 20.7195V16.4694C7.36865 16.2634 7.22373 16.0859 7.022 16.0447ZM5.71967 22.7062C1.63479 19.6409 -0.0927148 14.3447 1.39894 9.45978L1.75897 10.5396C1.78929 10.631 1.84919 10.7097 1.92923 10.7632L4.08895 12.2032L3.59635 12.6963C3.51512 12.7776 3.46941 12.8878 3.46941 13.0027V14.3027C3.46936 14.3699 3.4849 14.4362 3.5149 14.4964L4.38139 16.2297C4.44139 16.3495 4.55333 16.4347 4.68466 16.4607L6.50428 16.8243V20.8027C6.50422 20.8577 6.51468 20.9123 6.53504 20.9635L7.40152 23.1301C7.44896 23.2485 7.54612 23.34 7.6671 23.3802L8.96683 23.8135C9.01026 23.8282 9.05575 23.8358 9.10157 23.836C9.34083 23.836 9.53481 23.642 9.53481 23.4027V21.4527L11.0945 20.2827C11.2036 20.2009 11.2678 20.0724 11.2678 19.936V18.8154L12.8738 17.2091C12.9342 17.1486 12.9754 17.0715 12.9921 16.9876L13.4253 14.821C13.4722 14.5863 13.3201 14.358 13.0854 14.3111C13.0575 14.3055 13.0292 14.3027 13.0008 14.3027H11.513L10.3393 12.3462C10.261 12.2158 10.1201 12.1361 9.96806 12.136H7.2031L6.45879 10.6423C6.39645 10.5177 6.27796 10.4306 6.14035 10.4083C6.0028 10.3846 5.86237 10.43 5.76473 10.5297L5.20238 11.09V10.4027C5.20238 10.2878 5.15667 10.1776 5.07544 10.0963L4.3359 9.35665V8.61175L6.99687 8.23172C7.05401 8.22343 7.10898 8.20382 7.15847 8.17408L9.32469 6.87408C9.38545 6.83757 9.43636 6.78666 9.47286 6.72588L10.6903 4.69658L11.8379 4.31352C11.9675 4.271 12.0692 4.16932 12.1117 4.03965L12.545 2.73965C12.62 2.51242 12.4967 2.26732 12.2696 2.19224C12.2486 2.18531 12.2271 2.18 12.2053 2.17632L9.69771 1.75815L9.2571 1.46435C11.9834 0.576775 14.9363 0.686625 17.5892 1.77418L16.7977 2.16938H15.167C15.002 2.16846 14.8508 2.26141 14.7771 2.40902L13.9106 4.14235C13.8038 4.35652 13.8909 4.61674 14.105 4.7235C14.1232 4.7326 14.1421 4.7404 14.1614 4.74685L15.4611 5.18018C15.5391 5.20667 15.6231 5.21003 15.7029 5.18972L17.3137 4.78715L18.4938 5.18018C18.5107 5.18625 18.5281 5.19091 18.5458 5.19405L20.712 5.62738C20.8247 5.65035 20.9419 5.62727 21.0374 5.56325L22.0235 4.90545C22.5088 5.44609 22.9449 6.02892 23.3267 6.64702L21.1951 7.35768L18.8872 6.97288L18.1247 5.82888C18.0448 5.70901 17.9105 5.63675 17.7664 5.63605H15.167C15.0521 5.63605 14.9419 5.68177 14.8607 5.76302L13.5609 7.06302C13.4644 7.15949 13.419 7.29582 13.4383 7.43092L13.8716 10.4642C13.8934 10.6142 13.992 10.7419 14.1315 10.8009L17.1642 12.1009C17.2511 12.1386 17.348 12.1463 17.4398 12.123L18.9869 11.7361L19.9326 12.3679V13.8694C19.9319 13.9364 19.9467 14.0027 19.976 14.0631L21.6656 17.4383V19.0694C21.6656 19.1843 21.7113 19.2945 21.7926 19.3757L22.6989 20.2827C18.6793 25.6416 11.0774 26.7267 5.71967 22.7062Z" fill="#03C239"/>
</svg>
