<svg width="626" height="170" viewBox="0 0 626 170" fill="none" xmlns="http://www.w3.org/2000/svg">
<path d="M210.64 60C210.907 60 211.12 60.1067 211.28 60.32C211.493 60.48 211.6 60.6933 211.6 60.96V67.12C211.6 67.3867 211.493 67.6267 211.28 67.84C211.12 68 210.907 68.08 210.64 68.08H195.92C195.653 68.08 195.52 68.2133 195.52 68.48V115.04C195.52 115.307 195.413 115.547 195.2 115.76C195.04 115.92 194.827 116 194.56 116H187.2C186.933 116 186.693 115.92 186.48 115.76C186.32 115.547 186.24 115.307 186.24 115.04V68.48C186.24 68.2133 186.107 68.08 185.84 68.08H171.68C171.413 68.08 171.173 68 170.96 67.84C170.8 67.6267 170.72 67.3867 170.72 67.12V60.96C170.72 60.6933 170.8 60.48 170.96 60.32C171.173 60.1067 171.413 60 171.68 60H210.64ZM233.875 74.64C235.582 74.64 237.075 74.9867 238.355 75.68C238.782 75.8933 238.942 76.2933 238.835 76.88L237.475 84.08C237.422 84.72 237.048 84.9067 236.355 84.64C235.555 84.3733 234.622 84.24 233.555 84.24C232.862 84.24 232.328 84.2667 231.955 84.32C229.715 84.4267 227.848 85.2267 226.355 86.72C224.862 88.16 224.115 90.0533 224.115 92.4V115.04C224.115 115.307 224.008 115.547 223.795 115.76C223.635 115.92 223.422 116 223.155 116H215.795C215.528 116 215.288 115.92 215.075 115.76C214.915 115.547 214.835 115.307 214.835 115.04V76.08C214.835 75.8133 214.915 75.6 215.075 75.44C215.288 75.2267 215.528 75.12 215.795 75.12H223.155C223.422 75.12 223.635 75.2267 223.795 75.44C224.008 75.6 224.115 75.8133 224.115 76.08V79.68C224.115 79.8933 224.142 80.0267 224.195 80.08C224.302 80.08 224.408 80 224.515 79.84C226.755 76.3733 229.875 74.64 233.875 74.64ZM250.193 69.52C248.54 69.52 247.18 68.9867 246.113 67.92C245.046 66.8533 244.513 65.4933 244.513 63.84C244.513 62.1867 245.046 60.8267 246.113 59.76C247.18 58.6933 248.54 58.16 250.193 58.16C251.846 58.16 253.206 58.6933 254.273 59.76C255.34 60.8267 255.873 62.1867 255.873 63.84C255.873 65.4933 255.34 66.8533 254.273 67.92C253.206 68.9867 251.846 69.52 250.193 69.52ZM246.353 116C246.086 116 245.846 115.92 245.633 115.76C245.473 115.547 245.393 115.307 245.393 115.04V76C245.393 75.7333 245.473 75.52 245.633 75.36C245.846 75.1467 246.086 75.04 246.353 75.04H253.713C253.98 75.04 254.193 75.1467 254.353 75.36C254.566 75.52 254.673 75.7333 254.673 76V115.04C254.673 115.307 254.566 115.547 254.353 115.76C254.193 115.92 253.98 116 253.713 116H246.353ZM286.984 81.68C286.984 81.9467 286.877 82.1867 286.664 82.4C286.504 82.56 286.29 82.64 286.024 82.64H277.864C277.597 82.64 277.464 82.7733 277.464 83.04V102.32C277.464 104.347 277.89 105.813 278.744 106.72C279.65 107.627 281.064 108.08 282.984 108.08H285.384C285.65 108.08 285.864 108.187 286.024 108.4C286.237 108.56 286.344 108.773 286.344 109.04V115.04C286.344 115.627 286.024 115.973 285.384 116.08L281.224 116.16C277.01 116.16 273.864 115.44 271.784 114C269.704 112.56 268.637 109.84 268.584 105.84V83.04C268.584 82.7733 268.45 82.64 268.184 82.64H263.624C263.357 82.64 263.117 82.56 262.904 82.4C262.744 82.1867 262.664 81.9467 262.664 81.68V76.08C262.664 75.8133 262.744 75.6 262.904 75.44C263.117 75.2267 263.357 75.12 263.624 75.12H268.184C268.45 75.12 268.584 74.9867 268.584 74.72V65.36C268.584 65.0933 268.664 64.88 268.824 64.72C269.037 64.5067 269.277 64.4 269.544 64.4H276.504C276.77 64.4 276.984 64.5067 277.144 64.72C277.357 64.88 277.464 65.0933 277.464 65.36V74.72C277.464 74.9867 277.597 75.12 277.864 75.12H286.024C286.29 75.12 286.504 75.2267 286.664 75.44C286.877 75.6 286.984 75.8133 286.984 76.08V81.68ZM311.804 116.64C307.591 116.64 303.964 115.573 300.924 113.44C297.938 111.307 295.831 108.347 294.604 104.56C293.698 101.68 293.244 98.64 293.244 95.44C293.244 92.0267 293.671 88.9867 294.524 86.32C295.751 82.5867 297.884 79.68 300.924 77.6C303.964 75.52 307.618 74.48 311.884 74.48C315.938 74.48 319.431 75.52 322.364 77.6C325.351 79.68 327.458 82.56 328.684 86.24C329.644 88.8 330.124 91.84 330.124 95.36C330.124 98.72 329.671 101.76 328.764 104.48C327.538 108.267 325.431 111.253 322.444 113.44C319.458 115.573 315.911 116.64 311.804 116.64ZM311.804 108.64C313.778 108.64 315.458 108.08 316.844 106.96C318.284 105.84 319.324 104.267 319.964 102.24C320.498 100.48 320.764 98.24 320.764 95.52C320.764 92.64 320.498 90.4 319.964 88.8C319.378 86.7733 318.364 85.2267 316.924 84.16C315.484 83.04 313.724 82.48 311.644 82.48C309.671 82.48 307.964 83.04 306.524 84.16C305.084 85.2267 304.044 86.7733 303.404 88.8C302.871 90.6667 302.604 92.9067 302.604 95.52C302.604 98.1333 302.871 100.373 303.404 102.24C303.991 104.267 305.004 105.84 306.444 106.96C307.938 108.08 309.724 108.64 311.804 108.64ZM358.498 74.48C362.818 74.48 366.258 75.76 368.818 78.32C371.431 80.88 372.738 84.3733 372.738 88.8V115.04C372.738 115.307 372.631 115.547 372.418 115.76C372.258 115.92 372.044 116 371.778 116H364.418C364.151 116 363.911 115.92 363.698 115.76C363.538 115.547 363.458 115.307 363.458 115.04V90.72C363.458 88.2667 362.764 86.2933 361.378 84.8C359.991 83.2533 358.151 82.48 355.858 82.48C353.564 82.48 351.698 83.2267 350.258 84.72C348.871 86.2133 348.178 88.1867 348.178 90.64V115.04C348.178 115.307 348.071 115.547 347.858 115.76C347.698 115.92 347.484 116 347.218 116H339.858C339.591 116 339.351 115.92 339.138 115.76C338.978 115.547 338.898 115.307 338.898 115.04V76.08C338.898 75.8133 338.978 75.6 339.138 75.44C339.351 75.2267 339.591 75.12 339.858 75.12H347.218C347.484 75.12 347.698 75.2267 347.858 75.44C348.071 75.6 348.178 75.8133 348.178 76.08V78.64C348.178 78.8 348.231 78.9067 348.338 78.96C348.444 79.0133 348.524 78.96 348.578 78.8C350.764 75.92 354.071 74.48 358.498 74.48ZM436.109 60C436.375 60 436.589 60.1067 436.749 60.32C436.962 60.48 437.069 60.6933 437.069 60.96V67.12C437.069 67.3867 436.962 67.6267 436.749 67.84C436.589 68 436.375 68.08 436.109 68.08H421.389C421.122 68.08 420.989 68.2133 420.989 68.48V115.04C420.989 115.307 420.882 115.547 420.669 115.76C420.509 115.92 420.295 116 420.029 116H412.669C412.402 116 412.162 115.92 411.949 115.76C411.789 115.547 411.709 115.307 411.709 115.04V68.48C411.709 68.2133 411.575 68.08 411.309 68.08H397.149C396.882 68.08 396.642 68 396.429 67.84C396.269 67.6267 396.189 67.3867 396.189 67.12V60.96C396.189 60.6933 396.269 60.48 396.429 60.32C396.642 60.1067 396.882 60 397.149 60H436.109ZM459.344 74.64C461.05 74.64 462.544 74.9867 463.824 75.68C464.25 75.8933 464.41 76.2933 464.304 76.88L462.944 84.08C462.89 84.72 462.517 84.9067 461.824 84.64C461.024 84.3733 460.09 84.24 459.024 84.24C458.33 84.24 457.797 84.2667 457.424 84.32C455.184 84.4267 453.317 85.2267 451.824 86.72C450.33 88.16 449.584 90.0533 449.584 92.4V115.04C449.584 115.307 449.477 115.547 449.264 115.76C449.104 115.92 448.89 116 448.624 116H441.264C440.997 116 440.757 115.92 440.544 115.76C440.384 115.547 440.304 115.307 440.304 115.04V76.08C440.304 75.8133 440.384 75.6 440.544 75.44C440.757 75.2267 440.997 75.12 441.264 75.12H448.624C448.89 75.12 449.104 75.2267 449.264 75.44C449.477 75.6 449.584 75.8133 449.584 76.08V79.68C449.584 79.8933 449.61 80.0267 449.664 80.08C449.77 80.08 449.877 80 449.984 79.84C452.224 76.3733 455.344 74.64 459.344 74.64ZM485.591 74.48C488.951 74.48 491.911 75.0667 494.471 76.24C497.031 77.4133 499.005 79.04 500.391 81.12C501.778 83.1467 502.471 85.4667 502.471 88.08V115.04C502.471 115.307 502.365 115.547 502.151 115.76C501.991 115.92 501.778 116 501.511 116H494.151C493.885 116 493.645 115.92 493.431 115.76C493.271 115.547 493.191 115.307 493.191 115.04V112.48C493.191 112.32 493.138 112.24 493.031 112.24C492.925 112.187 492.818 112.213 492.711 112.32C490.098 115.2 486.311 116.64 481.351 116.64C477.351 116.64 474.045 115.627 471.431 113.6C468.871 111.573 467.591 108.56 467.591 104.56C467.591 100.4 469.031 97.1733 471.911 94.88C474.845 92.5333 478.951 91.36 484.231 91.36H492.791C493.058 91.36 493.191 91.2267 493.191 90.96V89.04C493.191 86.96 492.578 85.36 491.351 84.24C490.125 83.0667 488.285 82.48 485.831 82.48C483.805 82.48 482.151 82.8533 480.871 83.6C479.645 84.2933 478.871 85.28 478.551 86.56C478.391 87.2 478.018 87.4667 477.431 87.36L469.671 86.4C469.405 86.3467 469.165 86.2667 468.951 86.16C468.791 86 468.738 85.8133 468.791 85.6C469.218 82.3467 470.951 79.68 473.991 77.6C477.085 75.52 480.951 74.48 485.591 74.48ZM483.671 109.28C486.285 109.28 488.525 108.587 490.391 107.2C492.258 105.813 493.191 104.053 493.191 101.92V98.16C493.191 97.8933 493.058 97.76 492.791 97.76H486.071C483.245 97.76 481.005 98.2933 479.351 99.36C477.751 100.427 476.951 101.947 476.951 103.92C476.951 105.627 477.565 106.96 478.791 107.92C480.071 108.827 481.698 109.28 483.671 109.28ZM521.969 116C521.435 116 521.089 115.733 520.929 115.2L508.049 76.16C507.995 76.0533 507.969 75.92 507.969 75.76C507.969 75.28 508.262 75.04 508.849 75.04H517.009C517.595 75.04 517.969 75.3067 518.129 75.84L525.889 102.56C525.942 102.72 526.022 102.8 526.129 102.8C526.235 102.8 526.315 102.72 526.369 102.56L534.129 75.84C534.289 75.3067 534.662 75.04 535.249 75.04L543.409 75.2C543.729 75.2 543.969 75.3067 544.129 75.52C544.289 75.68 544.315 75.9467 544.209 76.32L531.409 115.2C531.249 115.733 530.902 116 530.369 116H521.969ZM583.534 90.96C583.747 92.2933 583.854 93.7867 583.854 95.44L583.774 97.92C583.774 98.56 583.454 98.88 582.814 98.88H557.774C557.507 98.88 557.374 99.0133 557.374 99.28C557.534 101.04 557.774 102.24 558.094 102.88C559.374 106.72 562.494 108.667 567.454 108.72C571.08 108.72 573.96 107.227 576.094 104.24C576.307 103.92 576.574 103.76 576.894 103.76C577.107 103.76 577.294 103.84 577.454 104L582.414 108.08C582.894 108.453 582.974 108.88 582.654 109.36C581 111.707 578.787 113.52 576.014 114.8C573.294 116.08 570.254 116.72 566.894 116.72C562.734 116.72 559.187 115.787 556.254 113.92C553.374 112.053 551.267 109.44 549.934 106.08C548.707 103.2 548.094 99.2 548.094 94.08C548.094 90.9867 548.414 88.48 549.054 86.56C550.12 82.8267 552.12 79.8933 555.054 77.76C558.04 75.5733 561.614 74.48 565.774 74.48C576.28 74.48 582.2 79.9733 583.534 90.96ZM565.774 82.48C563.8 82.48 562.147 82.9867 560.814 84C559.534 84.96 558.627 86.32 558.094 88.08C557.774 88.9867 557.56 90.16 557.454 91.6C557.347 91.8667 557.454 92 557.774 92H574.014C574.28 92 574.414 91.8667 574.414 91.6C574.307 90.2667 574.147 89.2533 573.934 88.56C573.454 86.64 572.494 85.1467 571.054 84.08C569.667 83.0133 567.907 82.48 565.774 82.48ZM593.295 116C593.028 116 592.788 115.92 592.575 115.76C592.415 115.547 592.335 115.307 592.335 115.04V60.96C592.335 60.6933 592.415 60.48 592.575 60.32C592.788 60.1067 593.028 60 593.295 60H600.655C600.922 60 601.135 60.1067 601.295 60.32C601.508 60.48 601.615 60.6933 601.615 60.96V115.04C601.615 115.307 601.508 115.547 601.295 115.76C601.135 115.92 600.922 116 600.655 116H593.295Z" fill="#131043"/>
<path d="M12.4888 41.3279C18.2902 32.652 20.1226 30.2843 28.107 22.6215L29.3382 21.5385C51.9977 3.34419 83.9188 1.01883 84.2347 1C86.0446 1.43791 87.7546 1.85082 90.9532 4.06208C76.9254 6.47726 29.8094 16.3013 12.4888 41.3279Z" fill="#131043"/>
<path d="M0 87.2018C0.216599 77.1191 0.417262 73.4101 3.18994 62.5222C14.8562 31.0524 73.9557 16.0774 98.8236 11.0996C101.577 14.1983 104.178 17.1249 107.954 22.5438C41.4975 36.9284 1.14095 61.0991 0 87.2018Z" fill="#131043"/>
<path d="M56.5803 165.624L52.7069 164.157C48.652 162.35 43.6054 160.102 37.8887 156.327C35.5869 154.678 32.5303 152.459 30.323 150.685C7.60733 130.192 29.6138 98.7105 129.986 74.575C131.184 80.9103 132.316 86.8943 132.795 95.3449C44.2541 115.783 21.6247 143.996 45.285 160.165C49.672 163.163 54.6911 164.951 56.5803 165.624Z" fill="#131043"/>
<path d="M90.2484 167.367C83.9374 168.94 83.4219 169.069 79.3949 169.46C56.6608 168.22 43.6649 156.18 60.3002 141.925C71.8658 132.014 98.774 121.594 132.279 114.05C131.366 119.708 130.503 125.051 127.942 132.064C79.655 142.949 61.799 157.235 72.4316 164.759C74.8141 166.444 81.2476 168.891 90.2484 167.367Z" fill="#131043"/>
<path d="M15.9825 135.249C13.8274 132.012 11.1163 127.585 9.21581 124.192C5.58941 116.35 5.44815 116.043 3.95405 111.396L2.81239 107.48C-3.59719 72.3794 63.9145 43.6663 129.354 31.8418C135.134 41.2765 136.395 43.7975 140.598 54.3195C63.0532 70.0088 -4.65193 102.845 15.9825 135.249Z" fill="#03C239"/>
<path d="M143.994 65.4392C143.032 62.0758 141.684 57.6083 140.549 54.2996C136.475 44.1307 135.273 41.5431 129.305 31.8219C127.605 29.3665 125.294 26.1211 123.476 23.7512C132.825 28.5099 147 31.8219 157.5 39.5C157.62 45.3311 150.5 51.5 143.994 65.4392Z" fill="#03C239"/>
</svg>
