<svg width="256" height="256" viewBox="0 0 256 256" fill="none" xmlns="http://www.w3.org/2000/svg">
<path d="M20.2991 61.2841C29.7286 48.0998 32.707 44.5017 45.6847 32.857L47.6858 31.2112C84.5162 3.56234 136.4 0.028622 136.914 0C139.855 0.665461 142.635 1.29294 147.834 4.65328C125.033 8.3235 48.4517 23.2526 20.2991 61.2841Z" fill="#131043"/>
<path d="M0 130.996C0.352055 115.674 0.678211 110.038 5.18487 93.4919C24.147 45.6689 120.206 22.9122 160.626 15.3478C165.102 20.0566 169.329 24.5041 175.467 32.7389C67.4492 54.5984 1.85447 91.3293 0 130.996Z" fill="#131043"/>
<path d="M91.9646 250.17L85.6689 247.94C79.0781 245.195 70.8755 241.779 61.5837 236.043C57.8424 233.537 52.8741 230.164 49.2865 227.469C12.3648 196.326 48.1337 148.485 211.277 111.808C213.224 121.435 215.064 130.529 215.843 143.371C71.9299 174.429 35.1483 217.303 73.6054 241.874C80.7359 246.43 88.8939 249.147 91.9646 250.17Z" fill="#131043"/>
<path d="M146.688 252.819C136.43 255.21 135.593 255.405 129.047 256C92.0955 254.115 70.9722 235.819 98.011 214.156C116.809 199.095 160.545 183.259 215.005 171.796C213.52 180.394 212.117 188.514 207.954 199.172C129.47 215.712 100.447 237.422 117.729 248.855C121.602 251.417 132.058 255.135 146.688 252.819Z" fill="#131043"/>
<path d="M25.9777 204.01C22.4748 199.092 18.0682 192.365 14.9792 187.209C9.08493 175.29 8.85532 174.825 6.42685 167.763L4.57121 161.812C-5.8468 108.471 103.886 64.8376 210.25 46.8685C219.644 61.2059 221.693 65.0369 228.525 81.0267C102.486 104.869 -7.56116 154.768 25.9777 204.01Z" fill="#03C239"/>
<path d="M234.046 97.9247C232.482 92.8135 230.29 86.0245 228.445 80.9964C221.824 65.5433 219.87 61.6111 210.17 46.8383C207.406 43.1069 203.65 38.1752 200.695 34.5737C215.891 41.8052 238.931 46.8383 255.998 58.5063C256.192 67.3676 244.62 76.742 234.046 97.9247Z" fill="#03C239"/>
</svg>
