<svg width="24" height="24" viewBox="0 0 24 24" fill="none" xmlns="http://www.w3.org/2000/svg">
<path d="M22.8334 17.33V20.58C22.8346 20.8817 22.7728 21.1804 22.652 21.4568C22.5311 21.7332 22.3538 21.9814 22.1315 22.1854C21.9092 22.3893 21.6467 22.5446 21.3609 22.6413C21.0751 22.7379 20.7722 22.7738 20.4718 22.7467C17.1382 22.3844 13.936 21.2453 11.1226 19.4208C8.50507 17.7576 6.28587 15.5384 4.62259 12.9208C2.79173 10.0946 1.65235 6.87691 1.29676 3.52834C1.26969 3.22876 1.30529 2.92683 1.4013 2.64176C1.49731 2.3567 1.65163 2.09475 1.85442 1.87259C2.05721 1.65044 2.30405 1.47294 2.5792 1.3514C2.85435 1.22987 3.15179 1.16695 3.45259 1.16667H6.70259C7.22834 1.1615 7.73803 1.34767 8.13667 1.6905C8.5353 2.03332 8.79567 2.5094 8.86926 3.03C9.00643 4.07008 9.26083 5.09129 9.62759 6.07417C9.77335 6.46192 9.80489 6.88333 9.71849 7.28846C9.63209 7.69359 9.43136 8.06546 9.14009 8.36L7.76426 9.73584C9.30644 12.448 11.5521 14.6937 14.2643 16.2358L15.6401 14.86C15.9346 14.5687 16.3065 14.368 16.7116 14.2816C17.1168 14.1952 17.5382 14.2267 17.9259 14.3725C18.9088 14.7393 19.93 14.9937 20.9701 15.1308C21.4963 15.2051 21.9769 15.4701 22.3205 15.8756C22.6641 16.2811 22.8466 16.7987 22.8334 17.33Z" stroke="#03C239" stroke-linecap="round" stroke-linejoin="round"/>
</svg>
